# xmcd CD database file
#
# Track frame offsets:
#	150
#	26150
#	49970
#	70482
#	89487
#	117410
#	135277
#	150035
#	177007
#	200600
#	227395
#	249652
#	276585
#
# Disc length: 3836 seconds
#
# Revision: 0
# Processed by: cddbd v1.5.2PL0 Copyright (c) Steve Scherf et al.
# Submitted via: CDex 1.51
#
DISCID=b20efa0d
DTITLE=Helmut Brandt - Chez Pep
DYEAR=1995
DGENRE=Jazz
TTITLE0=Chez Pep
TTITLE1=The Blues goes on
TTITLE2=Blues for Yasmin
TTITLE3=Otti Olsen
TTITLE4=ChinaBop
TTITLE5=Skywalker
TTITLE6=Vernis Moli
TTITLE7=Julia
TTITLE8=Jazz-Waltz-Salad
TTITLE9=Winterschlussverkauf
TTITLE10=Brandicity
TTITLE11=Ten or Sex
TTITLE12=Satin Doll
EXTD=YEAR: 1995
EXTT0=
EXTT1=
EXTT2=
EXTT3=
EXTT4=
EXTT5=
EXTT6=
EXTT7=
EXTT8=
EXTT9=
EXTT10=
EXTT11=
EXTT12=
PLAYORDER=
